<svg width="154" height="151" viewBox="0 0 154 151" fill="none" xmlns="http://www.w3.org/2000/svg">
<path d="M4.35355 0.646446C4.15829 0.451184 3.84171 0.451184 3.64645 0.646446L0.464466 3.82843C0.269204 4.02369 0.269204 4.34027 0.464466 4.53553C0.659728 4.7308 0.976311 4.7308 1.17157 4.53553L4 1.70711L6.82843 4.53553C7.02369 4.7308 7.34027 4.7308 7.53553 4.53553C7.7308 4.34027 7.7308 4.02369 7.53553 3.82843L4.35355 0.646446ZM4.5 16L4.5 0.999999H3.5L3.5 16H4.5Z" fill="black"/>
<path d="M12.6464 17.3536C12.8417 17.5488 13.1583 17.5488 13.3536 17.3536L16.5355 14.1716C16.7308 13.9763 16.7308 13.6597 16.5355 13.4645C16.3403 13.2692 16.0237 13.2692 15.8284 13.4645L13 16.2929L10.1716 13.4645C9.97631 13.2692 9.65973 13.2692 9.46447 13.4645C9.2692 13.6597 9.2692 13.9763 9.46447 14.1716L12.6464 17.3536ZM12.5 2L12.5 17H13.5V2H12.5Z" fill="black"/>
</svg>
